<svg xmlns="http://www.w3.org/2000/svg" height="20" viewBox="0 96 960 960" width="20"><path d="m614 746 51-51-149-149V336h-72v240l170 170ZM480 960q-79.376 0-149.188-30Q261 900 208.5 847.5T126 725.042q-30-69.959-30-149.5Q96 496 126 426t82.5-122q52.5-52 122.458-82 69.959-30 149.5-30 79.542 0 149.548 30.24 70.007 30.24 121.792 82.08 51.786 51.84 81.994 121.92T864 576q0 79.376-30 149.188Q804 795 752 847.5T629.869 930Q559.738 960 480 960Zm0-384Zm.477 312q129.477 0 220.5-91.5T792 575.523q0-129.477-91.023-220.5T480.477 264Q351 264 259.5 355.023t-91.5 220.5Q168 705 259.5 796.5T480.477 888Z"/></svg>