<svg xmlns="http://www.w3.org/2000/svg" height="20" viewBox="0 96 960 960" width="20"><path d="M288 960q-100 0-170-70T48 720V432h480v288q0 100-70 170t-170 70Zm-72.211-324Q231 636 241.5 625.711q10.5-10.29 10.5-25.5Q252 585 241.711 574.5q-10.29-10.5-25.5-10.5Q201 564 190.5 574.289q-10.5 10.29-10.5 25.5Q180 615 190.289 625.5q10.29 10.5 25.5 10.5ZM288 792q37.44 0 66.72-19T384 720H192q0 34 29.28 53T288 792Zm71.789-156Q375 636 385.5 625.711q10.5-10.29 10.5-25.5Q396 585 385.711 574.5q-10.29-10.5-25.5-10.5Q345 564 334.5 574.289q-10.5 10.29-10.5 25.5Q324 615 334.289 625.5q10.29 10.5 25.5 10.5ZM672 720q-24.649 0-48.825-5Q599 710 576 699V387l-1.5-1.5-1.5-1.5H432V192h480v288q0 100-70 170t-170 70Zm-72.211-324Q615 396 625.5 385.711q10.5-10.29 10.5-25.5Q636 345 625.711 334.5q-10.29-10.5-25.5-10.5Q585 324 574.5 334.289q-10.5 10.29-10.5 25.5Q564 375 574.289 385.5q10.29 10.5 25.5 10.5ZM576 552h192q0-34-29.28-53T672 480q-37 0-66.5 19T576 552Zm167.789-156Q759 396 769.5 385.711q10.5-10.29 10.5-25.5Q780 345 769.711 334.5q-10.29-10.5-25.5-10.5Q729 324 718.5 334.289q-10.5 10.29-10.5 25.5Q708 375 718.289 385.5q10.29 10.5 25.5 10.5Z"/></svg>